<svg width="1941" height="968" viewBox="0 0 1941 968" fill="none" xmlns="http://www.w3.org/2000/svg">
<path d="M0 0L1941 2.05321e-06L1941 968H0L0 0Z" fill="#A22A2F"/>
<path d="M265.2 485.8C244.4 485.8 225.6 481.2 208.8 472C192.2 462.8 179.1 450.1 169.5 433.9C160.1 417.5 155.4 399.2 155.4 379C155.4 358.8 160.1 340.6 169.5 324.4C179.1 308 192.3 295.2 209.1 286C225.9 276.8 244.7 272.2 265.5 272.2C281.1 272.2 295.5 274.8 308.7 280C321.9 285.2 333.1 292.8 342.3 302.8L328.2 316.9C311.8 300.3 291.1 292 266.1 292C249.5 292 234.4 295.8 220.8 303.4C207.2 311 196.5 321.4 188.7 334.6C181.1 347.8 177.3 362.6 177.3 379C177.3 395.4 181.1 410.2 188.7 423.4C196.5 436.6 207.2 447 220.8 454.6C234.4 462.2 249.5 466 266.1 466C291.3 466 312 457.6 328.2 440.8L342.3 454.9C333.1 464.9 321.8 472.6 308.4 478C295.2 483.2 280.8 485.8 265.2 485.8ZM547.873 274L452.473 450.7C445.673 463.3 437.673 472.7 428.473 478.9C419.473 484.9 409.573 487.9 398.773 487.9C390.773 487.9 382.173 486 372.973 482.2L379.273 464.2C386.473 467 393.073 468.4 399.073 468.4C412.873 468.4 424.173 460.9 432.973 445.9L438.973 435.7L353.773 274L377.473 274L450.673 416.2L525.673 274H547.873ZM800.484 274V484H779.184V316L696.684 457.3H686.184L603.684 316.9V484H582.384V274H600.684L691.884 429.7L782.184 274H800.484ZM940.852 387.7H892.852V484H871.252V274H892.852V368.2H940.852L1011.95 274H1035.95L957.952 376L1040.45 484L1014.95 484L940.852 387.7ZM1206.63 427.9L1089.63 427.9L1064.43 484H1041.33L1137.33 274H1159.23L1255.23 484H1231.83L1206.63 427.9ZM1198.53 409.9L1148.13 297.1L1097.73 409.9L1198.53 409.9ZM190.5 618.85H166.5L166.5 667H155.7L155.7 562H166.5V609.1H190.5L226.05 562H238.05L199.05 613L240.3 667H227.55L190.5 618.85ZM341.761 562L341.761 667H330.811L330.811 571.6H280.111L278.911 606.7C278.411 621.2 277.211 632.9 275.311 641.8C273.511 650.6 270.711 657.2 266.911 661.6C263.111 665.9 258.061 668.05 251.761 668.05C249.061 668.05 246.261 667.7 243.361 667L244.261 657.1C245.961 657.5 247.611 657.7 249.211 657.7C253.611 657.7 257.161 655.95 259.861 652.45C262.661 648.95 264.761 643.55 266.161 636.25C267.561 628.85 268.511 619.1 269.011 607L270.511 562H341.761ZM423.234 667.9C412.834 667.9 403.384 665.6 394.884 661C386.484 656.3 379.884 649.9 375.084 641.8C370.384 633.7 368.034 624.6 368.034 614.5C368.034 604.4 370.384 595.3 375.084 587.2C379.884 579.1 386.484 572.75 394.884 568.15C403.384 563.45 412.834 561.1 423.234 561.1C433.634 561.1 442.984 563.4 451.284 568C459.684 572.6 466.284 579 471.084 587.2C475.884 595.3 478.284 604.4 478.284 614.5C478.284 624.6 475.884 633.75 471.084 641.95C466.284 650.05 459.684 656.4 451.284 661C442.984 665.6 433.634 667.9 423.234 667.9ZM423.234 658C431.534 658 439.034 656.15 445.734 652.45C452.434 648.65 457.684 643.45 461.484 636.85C465.284 630.15 467.184 622.7 467.184 614.5C467.184 606.3 465.284 598.9 461.484 592.3C457.684 585.6 452.434 580.4 445.734 576.7C439.034 572.9 431.534 571 423.234 571C414.934 571 407.384 572.9 400.584 576.7C393.884 580.4 388.584 585.6 384.684 592.3C380.884 598.9 378.984 606.3 378.984 614.5C378.984 622.7 380.884 630.15 384.684 636.85C388.584 643.45 393.884 648.65 400.584 652.45C407.384 656.15 414.934 658 423.234 658ZM583.464 562L535.764 650.35C532.364 656.65 528.364 661.35 523.764 664.45C519.264 667.45 514.314 668.95 508.914 668.95C504.914 668.95 500.614 668 496.014 666.1L499.164 657.1C502.764 658.5 506.064 659.2 509.064 659.2C515.964 659.2 521.614 655.45 526.014 647.95L529.014 642.85L486.414 562H498.264L534.864 633.1L572.364 562H583.464ZM688.47 562V667H677.52V618.55L611.82 618.55V667H600.72V562H611.82V608.8L677.52 608.8V562H688.47ZM769.813 667.9C759.413 667.9 750.013 665.6 741.613 661C733.313 656.4 726.763 650.05 721.963 641.95C717.263 633.75 714.913 624.6 714.913 614.5C714.913 604.4 717.263 595.3 721.963 587.2C726.763 579 733.363 572.6 741.763 568C750.163 563.4 759.563 561.1 769.963 561.1C777.763 561.1 784.963 562.4 791.563 565C798.163 567.6 803.763 571.4 808.363 576.4L801.313 583.45C793.113 575.15 782.763 571 770.263 571C761.963 571 754.413 572.9 747.613 576.7C740.813 580.5 735.463 585.7 731.563 592.3C727.763 598.9 725.863 606.3 725.863 614.5C725.863 622.7 727.763 630.1 731.563 636.7C735.463 643.3 740.813 648.5 747.613 652.3C754.413 656.1 761.963 658 770.263 658C782.863 658 793.213 653.8 801.313 645.4L808.363 652.45C803.763 657.45 798.113 661.3 791.413 664C784.813 666.6 777.613 667.9 769.813 667.9ZM866.086 618.85H842.086V667H831.286V562H842.086V609.1H866.086L901.636 562H913.636L874.636 613L915.886 667H903.136L866.086 618.85ZM932.946 562H943.896V649L1011.1 562H1021.15V667H1010.2V580.15L942.996 667H932.946V562ZM1056.58 562H1067.53V649L1134.73 562H1144.78V667H1133.83V580.15L1066.63 667H1056.58V562ZM1100.38 554.35C1092.88 554.35 1086.93 552.65 1082.53 549.25C1078.23 545.85 1076.03 541.1 1075.93 535H1084.18C1084.28 539 1085.78 542.15 1088.68 544.45C1091.58 546.75 1095.48 547.9 1100.38 547.9C1105.18 547.9 1109.03 546.75 1111.93 544.45C1114.93 542.15 1116.48 539 1116.58 535H1124.83C1124.73 541.1 1122.48 545.85 1118.08 549.25C1113.68 552.65 1107.78 554.35 1100.38 554.35ZM1281.72 612.85C1289.02 614.35 1294.57 617.3 1298.37 621.7C1302.17 626 1304.07 631.65 1304.07 638.65C1304.07 647.75 1300.82 654.75 1294.32 659.65C1287.92 664.55 1278.47 667 1265.97 667H1219.47V562H1263.12C1274.32 562 1283.07 564.3 1289.37 568.9C1295.67 573.5 1298.82 580.15 1298.82 588.85C1298.82 594.75 1297.32 599.75 1294.32 603.85C1291.32 607.85 1287.12 610.85 1281.72 612.85ZM1230.42 609.55H1262.52C1270.62 609.55 1276.82 607.9 1281.12 604.6C1285.52 601.3 1287.72 596.5 1287.72 590.2C1287.72 583.9 1285.52 579.1 1281.12 575.8C1276.82 572.5 1270.62 570.85 1262.52 570.85H1230.42V609.55ZM1265.97 658.15C1284.07 658.15 1293.12 651.4 1293.12 637.9C1293.12 624.7 1284.07 618.1 1265.97 618.1H1230.42V658.15H1265.97ZM1377.42 612.1C1384.32 613.8 1389.72 616.9 1393.62 621.4C1397.62 625.9 1399.62 631.3 1399.62 637.6C1399.62 643.7 1397.72 649.05 1393.92 653.65C1390.12 658.25 1385.07 661.8 1378.77 664.3C1372.47 666.7 1365.62 667.9 1358.22 667.9C1351.22 667.9 1344.32 666.8 1337.52 664.6C1330.82 662.3 1324.77 658.9 1319.37 654.4L1323.42 646.45C1328.02 650.35 1333.27 653.35 1339.17 655.45C1345.07 657.45 1351.02 658.45 1357.02 658.45C1362.72 658.45 1367.97 657.55 1372.77 655.75C1377.57 653.95 1381.37 651.4 1384.17 648.1C1387.07 644.7 1388.52 640.7 1388.52 636.1C1388.52 630 1386.12 625.3 1381.32 622C1376.52 618.7 1369.77 617.05 1361.07 617.05H1338.57V608.05H1360.47C1367.87 608.05 1373.62 606.5 1377.72 603.4C1381.92 600.2 1384.02 595.8 1384.02 590.2C1384.02 584 1381.37 579.15 1376.07 575.65C1370.77 572.05 1364.12 570.25 1356.12 570.25C1351.12 570.25 1346.07 571 1340.97 572.5C1335.87 573.9 1331.02 576.05 1326.42 578.95L1322.67 569.8C1333.07 563.6 1344.32 560.5 1356.42 560.5C1363.52 560.5 1370.02 561.65 1375.92 563.95C1381.82 566.25 1386.47 569.55 1389.87 573.85C1393.37 578.15 1395.12 583.2 1395.12 589C1395.12 594.6 1393.57 599.45 1390.47 603.55C1387.37 607.55 1383.02 610.4 1377.42 612.1ZM1493.93 571.6H1437.98L1438.13 667H1427.18V562H1493.93V571.6ZM1582.04 562V667H1571.09V571.6H1520.39L1519.19 606.7C1518.69 621.2 1517.49 632.9 1515.59 641.8C1513.79 650.6 1510.99 657.2 1507.19 661.6C1503.39 665.9 1498.34 668.05 1492.04 668.05C1489.34 668.05 1486.54 667.7 1483.64 667L1484.54 657.1C1486.24 657.5 1487.89 657.7 1489.49 657.7C1493.89 657.7 1497.44 655.95 1500.14 652.45C1502.94 648.95 1505.04 643.55 1506.44 636.25C1507.84 628.85 1508.79 619.1 1509.29 607L1510.79 562H1582.04ZM1691.87 562V667H1680.92V635.2H1649.57C1648.17 635.2 1646.17 635.1 1643.57 634.9L1621.52 667H1609.67L1633.52 632.95C1625.82 630.65 1619.92 626.6 1615.82 620.8C1611.72 614.9 1609.67 607.7 1609.67 599.2C1609.67 587.4 1613.37 578.25 1620.77 571.75C1628.27 565.25 1638.37 562 1651.07 562H1691.87ZM1620.77 598.9C1620.77 607.5 1623.27 614.15 1628.27 618.85C1633.37 623.45 1640.77 625.75 1650.47 625.75H1680.92V571.6H1651.52C1641.72 571.6 1634.12 573.95 1628.72 578.65C1623.42 583.25 1620.77 590 1620.77 598.9ZM1822.17 657.4V690.55H1811.82V667H1720.17L1720.02 690.55H1709.67L1709.82 657.4H1715.07C1721.97 657 1726.77 651.55 1729.47 641.05C1732.17 630.45 1733.82 615.45 1734.42 596.05L1735.62 562H1806.42V657.4H1822.17ZM1744.32 597.1C1743.82 613.1 1742.57 626.3 1740.57 636.7C1738.67 647 1735.42 653.9 1730.82 657.4H1795.47V571.6H1745.22L1744.32 597.1Z" fill="white"/>
</svg>
